<?xml version="1.0" encoding="utf-8"?>
<!-- Generator: Adobe Illustrator 26.0.3, SVG Export Plug-In . SVG Version: 6.00 Build 0)  -->
<svg version="1.1" id="Layer_1" xmlns="http://www.w3.org/2000/svg" xmlns:xlink="http://www.w3.org/1999/xlink" x="0px" y="0px"
	 viewBox="0 0 235 90" style="enable-background:new 0 0 235 90;" xml:space="preserve">
<style type="text/css">
	.st0{fill:#E30046;}
</style>
<path class="st0" d="M44.4,73.9c0.7,0.4,1.5,0.7,2.2,1l0.8,0.3l1.5,14.4h-0.4c-1,0.2-2,0.2-2.9,0.2h-1L44.4,73.9L44.4,73.9z
	 M49.8,75.8c0.8,0.2,1.7,0.4,2.5,0.6l0.9,0.2L56.4,88l-1,0.3c-0.7,0.2-1.3,0.3-1.9,0.5l-1,0.2L52.2,89C52.2,89,49.8,75.8,49.8,75.8z
	 M59.7,76.8l4.1,8.4l-1,0.5c-0.7,0.3-1.4,0.6-2,0.9l-1,0.4L56,76.8L59.7,76.8L59.7,76.8z M66.3,75.7l4,5.6h-0.1L70,81.4L69.3,82
	c-0.5,0.4-1,0.7-1.5,1l-0.8,0.5l-0.3,0.2l-4.2-7C63.9,76.3,65.1,76,66.3,75.7L66.3,75.7z M72.9,72.9l3.3,3.3L76,76.4
	c-0.8,0.9-1.7,1.7-2.6,2.4c-0.1,0.1-0.2,0.1-0.2,0.2V79l-3.8-4.5C70.6,74,71.7,73.5,72.9,72.9L72.9,72.9z M53.1,60.1l9.5,16.3
	c-0.8,0.1-1.5,0.2-2.3,0.3l-0.8,0.1l-7.8-16C52.3,60.6,52.7,60.4,53.1,60.1z M50.3,61.5L56,76.8c-0.7-0.1-1.5-0.1-2.2-0.2l-0.7-0.1
	L49,61.9C49.5,61.7,49.9,61.6,50.3,61.5z M47.4,62.3l2.5,13.5c-0.6-0.2-1.2-0.3-1.7-0.5L47.3,75L46,62.4l0.1,0.1
	C46.5,62.4,47,62.3,47.4,62.3z M55.6,58.3l13.8,16.2c-0.8,0.3-1.5,0.6-2.3,0.8l-0.8,0.3L54.6,59.2C54.9,58.9,55.3,58.6,55.6,58.3
	L55.6,58.3z M78.9,68.6l2.3,1.6L81,70.4c-0.5,0.7-1,1.4-1.6,2.1l-0.6,0.7l-0.2,0.3l-2.9-2.3C76.9,70.4,77.9,69.5,78.9,68.6z
	 M57.8,56.2l18,14.9c-0.7,0.5-1.4,0.9-2.1,1.4L73,72.8L56.9,57.2C57.2,56.9,57.5,56.5,57.8,56.2z M59.6,53.6L81.3,66
	c-0.6,0.7-1.2,1.3-1.8,1.9l-0.6,0.6L58.8,54.8C59.1,54.4,59.4,54,59.6,53.6L59.6,53.6z M83.8,62.7l1.2,0.6c-0.5,1.2-1.1,2.4-1.8,3.5
	l-0.1,0.1c-0.1,0.1-0.1,0.2-0.1,0.3l-1.8-1C82.2,65,83.1,63.8,83.8,62.7z M60.8,50.8l24.8,8.8c-0.4,0.8-0.8,1.6-1.3,2.3l-0.5,0.8
	L60.3,52.1l0.2-0.4l0.2-0.5L60.8,50.8L60.8,50.8z M61.6,47.8l26.6,4.5l0.1,0.1c-0.2,0.9-0.5,1.8-0.8,2.7l-0.3,0.7l0.3,0.2
	c-0.3,1-0.6,2-0.9,3l-0.4,1l-0.8-0.2c0.6-1.1,1-2.1,1.4-3.2l0.3-0.8l-26-6.6C61.3,49.2,61.6,47.8,61.6,47.8z M89,44.5
	c0.1,0.9,0.1,1.8,0.1,2.6L89,47.9h-0.1l-27-1.9v-1.5L89,44.5L89,44.5z M39.8,62c0.3,0.1,0.6,0.2,0.9,0.2l0.5,0.1l-1.5,8.8l0.5,0.4
	c0.4,0.3,0.8,0.6,1.2,0.8l0.6,0.4l-1.1,17h-0.4c-0.9-0.1-1.8-0.2-2.6-0.3l-0.9-0.1h-0.4l3-18c-0.5-0.3-0.9-0.6-1.3-1L38,69.8
	L39.8,62L39.8,62z M35.9,68c0.5,0.4,0.9,0.8,1.3,1.2l0.7,0.6l-4.7,18.6l-0.9-0.2c-0.9-0.2-1.7-0.5-2.5-0.8l-0.8-0.3L35.9,68z
	 M33,64.6c0.3,0.5,0.7,0.9,1,1.3l0.6,0.6l-8.7,19.3l-0.9-0.4c-0.6-0.3-1.2-0.6-1.8-0.9L22.3,84L22,83.9L33,64.6L33,64.6z M30.6,61.1
	c0.3,0.5,0.5,0.9,0.8,1.3l0.4,0.6L19,81.9l-0.3-0.2L18,81.2c-0.5-0.4-1-0.7-1.4-1.1l-0.7-0.6l-0.3-0.2
	C15.7,79.4,30.6,61.1,30.6,61.1z M28.9,57.7c0.2,0.4,0.4,0.9,0.6,1.3l0.3,0.6L12.9,76.9l-0.3-0.3c-0.9-0.9-1.6-1.7-2.4-2.6L10,74
	v-0.1C10,73.9,28.9,57.7,28.9,57.7z M28.2,52.6L28.2,52.6c0.2,0.5,0.4,0.9,0.6,1.3l-1.1,0.7l0.2,0.6c0.1,0.2,0.2,0.4,0.2,0.6
	l0.2,0.6l1.5-1.1c0.2,0.3,0.4,0.5,0.6,0.8l0.3,0.4L29,57.8c-0.2-0.4-0.3-0.7-0.4-1l-0.2-0.5L7.8,71l-0.2-0.3L7.1,70
	c-0.4-0.5-0.7-1-1-1.5l-0.5-0.8l-0.1-0.2l-0.1-0.2l22.2-13c-0.2-0.5-0.3-1-0.4-1.5L28.2,52.6z M36.9,61l0.3,0.1
	c0.3,0.1,0.5,0.2,0.7,0.3l0.3,0.1L35.9,68c-0.4-0.4-0.7-0.7-1-1l-0.5-0.5L36.9,61z M34.3,59.5c0.3,0.2,0.5,0.4,0.8,0.5l0.4,0.3
	L33,64.6c-0.3-0.4-0.5-0.7-0.8-1l-0.4-0.5L34.3,59.5z M27,51.2L27,51.2c0,0.5,0.1,0.9,0.2,1.2l0.2,0.6L3.9,64.5l-0.5-1
	c-0.3-0.7-0.6-1.4-0.9-2l-0.4-1C2.2,60.5,27,51.2,27,51.2z M31.9,57.6c0.2,0.2,0.5,0.4,0.7,0.7l0.4,0.3l-2.3,2.7
	c-0.2-0.4-0.4-0.7-0.6-1l-0.3-0.5L31.9,57.6z M26.5,48c0.1,0.4,0.1,0.8,0.1,1.2l0.1,0.6L1,57.1c-0.3-1-0.6-2-0.8-3l-0.2-0.8V53
	L26.5,48z M27.1,49.7c0.1,0.5,0.3,0.9,0.5,1.4L27,51.2c-0.1-0.5-0.3-1-0.3-1.4C26.8,49.8,27.1,49.7,27.1,49.7z M26.5,45v1.7
	l-26.9,2.7v-0.4l-0.1-0.9c-0.1-0.6-0.1-1.2-0.1-1.8v-1.3C-0.6,45.2,26.5,45,26.5,45z M26.6,46.7c0.1,0.5,0.1,0.9,0.2,1.4h-0.2
	c-0.1-0.4-0.1-0.9-0.1-1.4H26.6z M0,37.4l26.7,4.4v0.1l-0.1,0.3c-0.1,0.3-0.1,0.7-0.1,1v0.4l-26.9-1.8v-0.5c0.1-0.9,0.2-1.8,0.3-2.6
	L0,37.8v-0.3C0,37.5,0,37.4,0,37.4z M87.8,36.8c0.3,0.9,0.5,1.8,0.7,2.7l0.1,0.7L61.7,43v-0.1c-0.1-0.3-0.1-0.6-0.1-0.9l-0.1-0.5
	C61.5,41.6,87.8,36.8,87.8,36.8z M2,29.9l25.2,9V39c-0.1,0.3-0.3,1.3-0.3,1.6L0.8,34L1,33.1C1.2,32,1.6,30.9,2,29.9z M84.7,29.7
	c0.5,0.8,0.9,1.5,1.2,2.3l0.4,0.8l-25,7.2l-0.1-0.4L61,39.2l-0.2-0.5L84.7,29.7L84.7,29.7z M27.5,37.4l0.5,0.2l-0.2,0.4l-0.2,0.5
	l-0.2,0.4l-0.3-0.1C27.3,38.4,27.4,37.9,27.5,37.4L27.5,37.4z M5.2,22.7l22.9,12.9l0.3-0.9l0.2-0.5l1,0.7c-0.2,0.3-0.4,0.5-0.5,0.8
	l-0.3,0.4L28,35.8c-0.1,0.4-0.3,0.8-0.4,1.1l-0.1,0.5L3.3,26.5l0.4-0.9C4,25,4.2,24.5,4.5,23.9L5,23C5,23,5.2,22.7,5.2,22.7z
	 M80.1,23.7c0.6,0.6,1.2,1.3,1.7,1.9l0.6,0.7L60.2,37.1c-0.2-0.3-0.3-0.6-0.5-0.8l-0.3-0.4L80.1,23.7z M87.3,32.6l0.2,0.8
	c0.2,0.8,0.4,1.5,0.6,2.3l0.2,0.8v0.3l-0.4,0.2c-0.3-1.1-0.7-2.2-1.2-3.2l-0.4-0.8L87.3,32.6z M75.4,12.7l0.3,0.3
	c0.6,0.6,1.3,1.3,1.8,1.9l0.6,0.7l0.2,0.3l-3.9,3.3c0.7,0.5,1.4,0.9,2,1.4L77,21L58.5,34.5l-0.3-0.4l-0.3-0.4l-0.3-0.3l-0.1-0.1
	l16.7-14.2c-0.9-0.6-1.8-1.1-2.7-1.5l-0.7-0.4L75.4,12.7L75.4,12.7z M9.6,16.3l19.7,16.3c-0.2,0.4-0.4,0.8-0.5,1.2l-0.3,0.6
	L7.1,19.7l0.2-0.3l0.5-0.7c0.4-0.5,0.7-1,1.1-1.4l0.6-0.7L9.6,16.3z M15.1,10.8L31,29.4c0.3-0.5,0.6-1,1-1.5l1.9,2.6
	c-0.3,0.2-0.5,0.4-0.7,0.6l-0.4,0.3h-0.1l-1.7-2l-0.4,0.6c-0.1,0.2-0.2,0.4-0.4,0.6L30,31.1l1.5,1.4c-0.2,0.2-0.5,0.5-0.7,0.7
	l-0.3,0.4l-1.2-1.1c0.2-0.3,0.3-0.7,0.5-1l0.3-0.5L12,13.5l0.2-0.1l0.1-0.2c0.6-0.7,1.3-1.3,1.9-1.9l0.7-0.6
	C14.8,10.8,15.1,10.8,15.1,10.8z M69.3,7.7L69.6,8l0.7,0.5c0.5,0.4,1,0.7,1.4,1.1l0.7,0.6l0.3,0.2L68,16l0.7,0.3
	c0.5,0.2,1,0.4,1.5,0.6l0.7,0.4L56.5,32.1L56,31.7l-0.5-0.4l-0.1-0.1l12.5-15.2l-0.7-0.2c-0.7-0.3-1.5-0.5-2.2-0.6l-0.8-0.2
	L69.3,7.7L69.3,7.7z M62.5,3.9l0.9,0.4c0.6,0.3,1.2,0.6,1.8,0.9L66,5.7l0.3,0.2l-4.8,8.6c0.8,0.1,1.5,0.2,2.2,0.4l0.7,0.2L54,30.2
	H54c-0.2-0.2-0.4-0.3-0.6-0.4c-0.1-0.1-0.3-0.2-0.4-0.2l-0.2-0.1h0.1l8.5-15c-0.9-0.1-1.8-0.2-2.6-0.2h-0.9l-6.4,14.4l-0.4-0.2
	c-0.3-0.1-0.5-0.2-0.7-0.3l-0.3-0.1l5-13.8c0.9-0.1,1.8-0.1,2.8-0.1C57.9,14.4,62.5,3.9,62.5,3.9z M84.4,25.2l0.5,1
	c0.3,0.7,0.6,1.4,0.9,2l0.4,1l-1.5,0.6c-0.6-1-1.2-1.9-1.9-2.8l-0.5-0.7L84.4,25.2z M21.5,6.2l11.8,19.9l0.8-0.9l0.4-0.5l2.1,4.2
	c-0.3,0.2-0.6,0.3-0.8,0.5l-0.4,0.3l-2-3.4l-0.4,0.4c-0.3,0.3-0.5,0.6-0.7,0.9l-0.4,0.4l-14-19.4H18l0.3-0.2L19,7.8
	c0.5-0.4,1-0.7,1.5-1l0.8-0.5l0.1-0.1C21.3,6.3,21.5,6.2,21.5,6.2z M37.6,21.7l1.8,6.2c-0.3,0.1-0.6,0.2-0.9,0.3L38,28.3l-1.9-5.2
	C36.6,22.6,37.1,22.1,37.6,21.7z M42,18.5l-0.6,0.4L39.5,0.3L43.8,0L44,17.4c0.7-0.4,1.5-0.7,2.3-1l1.1-16.2h0.5
	c0.9,0.1,1.8,0.2,2.6,0.3l0.9,0.2h0.4l-2.5,14.9c0.6-0.2,1.1-0.3,1.7-0.4l0.9-0.2l-3.2,12.8c-0.3-0.1-0.6-0.2-0.9-0.2l-0.5-0.1
	l2-11.8c-1,0.3-2,0.7-2.9,1l-0.7,10.6h-1.3v-0.1h-0.1L44,17.5l-0.7,0.3C42.9,18,42.5,18.3,42,18.5z M36,0.8l3.6,19.3
	c0.4-0.3,0.8-0.6,1.2-0.9l0.6-0.4l0.9,8.4l-0.6,0.2l-0.7,0.1l-1.4-7.3c-0.6,0.4-1.1,0.8-1.6,1.2l-0.5,0.4L31.9,1.8l0.8-0.2
	c0.8-0.2,1.5-0.4,2.3-0.6l0.8-0.2L36,0.8z M28.5,2.9L36,23.1c-0.4,0.4-0.8,0.8-1.1,1.2l-0.5,0.6L24.6,4.6l0.8-0.4
	C26.4,3.7,27.4,3.3,28.5,2.9z M80.5,18.6L80.5,18.6l0.3,0.4l0.5,0.7c0.4,0.5,0.7,1,1,1.5l0.5,0.8l0.2,0.3l-2.6,1.6
	c-0.8-0.8-1.6-1.5-2.4-2.2L77.1,21L80.5,18.6L80.5,18.6z M55,1.4l0.9,0.2c0.9,0.2,1.7,0.5,2.5,0.8l0.8,0.3L55,14.4
	c-0.9,0.1-1.7,0.2-2.5,0.3l-0.8,0.2L55,1.4z M44.2,62.5h-1.4l-0.5,6.8L42,72.7c0.7,0.5,1.5,0.8,2.2,1.2V62.6L44.2,62.5 M113.2,69.1
	h-6.9v5.9h-1.5V62.3h1.5v5.4h6.9v-5.4h1.5v12.6h-1.5L113.2,69.1L113.2,69.1z M123.7,62.1c3.6,0,6.5,3,6.5,6.6s-3,6.5-6.6,6.5
	c-3.6,0-6.5-3-6.5-6.6c-0.1-1.8,0.6-3.5,1.9-4.7C120.2,62.7,121.9,62,123.7,62.1z M123.7,73.8c2.1,0.1,4-1.2,4.8-3.1
	c0.8-1.9,0.4-4.2-1.1-5.6c-1.5-1.5-3.7-2-5.6-1.2c-2,0.8-3.2,2.7-3.2,4.8c-0.1,1.4,0.4,2.7,1.4,3.7C121,73.3,122.3,73.8,123.7,73.8z
	 M143.1,74.9v-1.8c-1.2,1.3-2.9,2.1-4.7,2.1c-3.6,0-6.5-2.9-6.5-6.5s2.9-6.5,6.5-6.5c2.4-0.1,4.7,1.3,5.7,3.5l-1.5,0.4
	c-0.9-1.6-2.5-2.5-4.2-2.5c-1.4-0.1-2.7,0.5-3.7,1.5s-1.5,2.3-1.4,3.7c-0.1,1.4,0.4,2.7,1.4,3.7c1,1,2.3,1.5,3.6,1.5
	c1.8,0.1,3.5-0.8,4.5-2.3v-1.8h-3.8v-1.4h5.1v6.6H143.1z M147.3,62.3h8.5v1.4h-7v4h5.5v1.4h-5.5v4.5h7v1.4h-8.5L147.3,62.3
	L147.3,62.3z M159,71.2c0.2,1.8,1.7,2.7,3.6,2.7s3-0.8,3-2.3c0-2.1-2.1-2.2-3.7-2.5c-1.6-0.4-3.9-1-3.9-3.6c0-2.2,1.6-3.5,4.3-3.5
	c2.3,0,4,1,4.6,3.1l-1.4,0.4c-0.4-1.5-1.8-2.4-3.2-2.2c-1.9,0-2.7,0.8-2.7,2.1c0,1.7,1.6,2,3.4,2.4c1.8,0.4,4.2,1,4.2,3.7
	c0,2.4-1.7,3.6-4.5,3.6c-2.1,0-4.6-0.7-5-3.6L159,71.2L159,71.2z M181.1,71.4c-1,2.4-3.3,3.9-5.9,3.8c-3.6,0-6.5-2.9-6.5-6.5
	s2.9-6.5,6.5-6.5c2.4-0.1,4.7,1.3,5.7,3.5l-1.4,0.4c-1.2-2-3.5-2.9-5.7-2.3c-2.2,0.7-3.7,2.7-3.6,4.9c-0.1,2.4,1.5,4.4,3.8,5
	c2.3,0.6,4.6-0.5,5.7-2.6L181.1,71.4L181.1,71.4z M192,69.1h-6.9v5.9h-1.5V62.3h1.5v5.4h6.9v-5.4h1.5v12.6H192L192,69.1L192,69.1z
	 M202.4,62.1c2.7,0,5,1.6,6.1,4c1,2.5,0.5,5.3-1.4,7.1c-1.9,1.9-4.7,2.4-7.1,1.4s-4-3.4-4-6.1c-0.1-1.8,0.6-3.5,1.9-4.7
	C199,62.7,200.6,62,202.4,62.1L202.4,62.1z M202.4,73.8c2.1,0.1,4-1.2,4.8-3.1c0.8-1.9,0.4-4.2-1.1-5.6c-1.5-1.5-3.7-2-5.6-1.2
	c-2,0.8-3.2,2.7-3.2,4.8c-0.1,1.4,0.5,2.7,1.4,3.7C199.7,73.3,201,73.8,202.4,73.8L202.4,73.8z M217.2,62.1c2.7,0,5,1.6,6.1,4
	c1,2.5,0.5,5.3-1.4,7.1c-1.9,1.9-4.7,2.4-7.1,1.4c-2.5-1-4-3.4-4-6.1c-0.1-1.8,0.6-3.5,1.9-4.7C213.8,62.7,215.5,62,217.2,62.1
	L217.2,62.1z M217.2,73.8c2.1,0.1,4-1.2,4.8-3.1c0.8-1.9,0.4-4.2-1.1-5.6c-1.5-1.5-3.7-2-5.6-1.2c-2,0.8-3.2,2.7-3.2,4.8
	c-0.1,1.4,0.4,2.7,1.4,3.7C214.5,73.3,215.9,73.8,217.2,73.8L217.2,73.8z M226.2,62.3h1.5v11.2h6.7v1.4h-8
	C226.4,74.9,226.2,62.3,226.2,62.3z M104.9,36.5V15.3h7.1v18.9c0,6.9,1.5,12.4,9,12.4s9-5.5,9-12.4V15.3h7.1v21.2
	c0,10.1-5.2,16.6-16.1,16.6S105,46.5,105,36.5 M142.9,33.8c0-11.6,8-19.3,19.2-19.3c3.8-0.1,7.6,0.7,11.1,2.2l-0.8,6.5
	c-3.3-1.4-6.8-2.1-10.3-2.1c-7.6,0-11.4,5.4-11.4,12.7s3.9,12.7,11.4,12.7c3.5-0.1,7-0.8,10.3-2.1l0.8,6.5
	c-3.5,1.5-7.3,2.2-11.1,2.1C150.9,53.1,142.9,45.4,142.9,33.8 M178.9,53.3V14.7h7.6v31.7h17.2v6.8C203.7,53.3,178.9,53.3,178.9,53.3
	z M209.5,53.3V14.7h7.6v31.7h17.2v6.8C234.3,53.3,209.5,53.3,209.5,53.3z"/>
</svg>
